PathFileType  4	(X/Y/Z) C:\Users\antoi\Documents\MyRepositories\mobilecap\ResultsAnalysis
DataRate	CameraRate	NumFrames	NumMarkers	Units	OrigDataRate	OrigDataStartFrame	OrigNumFrames
100.0	100.0	4	51	mm	100.0	87	231
Frame#	Time	r_knee			r_shank_antsup			r_ankle			r_calc			r_5meta			r_toe			L_knee			L_shank_antsup			L_ankle			L_calc			L_5meta			L_toe			r_sh2			r_sh3			r_sh4			L_sh2			L_sh3			r_thigh1			r_thigh2			r_thigh3			r_thigh4			r_thigh5			L_thigh1			L_thigh2			L_thigh3			L_thigh4			r.ASIS			r.PSIS			L.ASIS			L.PSIS			C7			R_Shoulder			L_Shoulder			R_Sternum			L_Sternum			R_humerus			R_elbow_med			R_elbow_lat			R_forearm			R_wrist_radius			R_wrist_ulna			L_humerus			L_elbow_med			L_elbow_lat			L_forearm			L_wrist_radius			L_wrist_ulna			R_HJC			L_HJC			R_HJC_reg			L_HJC_reg			
		X1	Y1	Z1	X2	Y2	Z2	X3	Y3	Z3	X4	Y4	Z4	X5	Y5	Z5	X6	Y6	Z6	X7	Y7	Z7	X8	Y8	Z8	X9	Y9	Z9	X10	Y10	Z10	X11	Y11	Z11	X12	Y12	Z12	X13	Y13	Z13	X14	Y14	Z14	X15	Y15	Z15	X16	Y16	Z16	X17	Y17	Z17	X18	Y18	Z18	X19	Y19	Z19	X20	Y20	Z20	X21	Y21	Z21	X22	Y22	Z22	X23	Y23	Z23	X24	Y24	Z24	X25	Y25	Z25	X26	Y26	Z26	X27	Y27	Z27	X28	Y28	Z28	X29	Y29	Z29	X30	Y30	Z30	X31	Y31	Z31	X32	Y32	Z32	X33	Y33	Z33	X34	Y34	Z34	X35	Y35	Z35	X36	Y36	Z36	X37	Y37	Z37	X38	Y38	Z38	X39	Y39	Z39	X40	Y40	Z40	X41	Y41	Z41	X42	Y42	Z42	X43	Y43	Z43	X44	Y44	Z44	X45	Y45	Z45	X46	Y46	Z46	X47	Y47	Z47	X48	Y48	Z48	X49	Y49	Z49	X50	Y50	Z50	X51	Y51	Z51	

87	0.86000000	-678.26545	749.77771	-438.57537	-715.25468	690.92949	-414.59998	-951.70373	508.74757	-468.79803	-1015.18011	530.00569	-523.45087	-929.66176	405.00206	-420.51386	-880.21469	375.16056	-463.84790	-725.86845	748.95813	-781.05176	-742.39323	678.71943	-789.90764	-988.16719	495.88764	-752.66321	-1052.13954	518.48893	-692.94030	-971.05131	392.50943	-789.03043	-914.38508	365.37020	-745.08274	-800.60927	615.98549	-418.75611	-762.41159	745.70148	-436.04145	-853.86130	674.46798	-444.76167	-798.81059	747.98057	-796.90204	-885.28551	661.47358	-793.20355	-691.41596	1061.25382	-450.72443	-651.25413	956.67900	-436.68212	-691.41826	922.77473	-394.04979	-783.98469	1035.25312	-390.51368	-748.28936	923.44093	-394.33051	-717.64307	1038.65466	-772.13845	-685.95614	903.79812	-787.08817	-832.19347	1013.70446	-776.89055	-791.74665	877.87537	-787.59771	-709.79882	1186.36179	-466.48832	-882.23613	1238.67632	-530.03432	-717.85984	1180.74172	-713.74216	-889.02093	1236.33711	-637.52330	-694.88432	1668.24260	-597.03222	-661.13768	1645.90734	-474.30029	-659.03760	1649.59416	-726.85118	-595.58358	1559.17866	-578.22494	-599.43908	1555.48360	-626.29788	-701.51679	1516.33904	-280.86888	-748.17145	1392.61648	-260.08005	-728.81285	1463.69303	-217.07059	-625.48949	1469.75933	-271.51971	-528.15978	1459.81141	-330.58058	-512.53927	1437.68225	-296.01769	-619.03738	1580.09861	-821.36403	-657.65742	1387.18311	-943.49415	-628.84064	1440.82063	-984.78908	-541.66257	1444.91521	-907.03100	-462.81134	1419.01389	-816.16767	-442.23149	1399.83244	-841.42095	-788.27087	1125.14748	-485.92976	-791.63286	1123.38182	-686.18586	-784.59233	1120.66341	-495.12375	-794.87816	1117.11753	-658.07740	
88	0.87000000	-657.56507	753.32608	-437.31763	-694.08830	695.37230	-413.46646	-928.77079	509.27741	-468.13682	-991.23843	528.44361	-524.49835	-906.65382	407.13526	-416.92403	-855.23765	377.32508	-458.04915	-708.52200	749.99661	-782.51484	-724.70711	680.45628	-791.61633	-970.08639	495.87044	-755.80509	-1033.13639	518.09389	-694.70656	-954.24213	393.11999	-793.75496	-897.02824	365.02743	-751.06896	-778.21774	618.88427	-416.88484	-741.81322	748.86966	-436.39234	-832.09207	675.75459	-444.64837	-781.88886	749.10807	-797.51454	-867.19585	661.66180	-794.66270	-679.38671	1063.34301	-449.98053	-636.45933	959.98378	-436.06035	-675.72344	925.14739	-393.17329	-771.46429	1034.85061	-390.29655	-732.48615	924.20681	-393.50637	-705.77516	1039.10614	-772.44905	-671.16054	905.06324	-787.26375	-819.79289	1012.00920	-777.83441	-776.40124	877.00414	-788.84112	-699.52275	1185.61846	-466.59837	-871.83334	1238.66701	-530.45264	-707.45087	1179.84608	-713.93351	-878.45046	1236.47121	-638.07508	-683.02660	1667.67067	-596.59729	-649.29782	1645.87636	-475.17844	-646.74930	1649.66311	-725.02141	-584.21311	1557.97542	-577.84930	-587.77948	1554.47827	-625.66671	-695.72297	1523.14875	-280.31483	-745.33391	1400.60452	-257.04587	-725.79617	1472.63996	-215.50883	-620.86626	1474.30961	-267.18067	-522.49937	1460.18474	-323.32366	-508.21416	1438.89959	-287.47796	-608.41888	1582.75236	-821.64981	-653.27753	1395.27976	-950.43598	-623.65497	1449.67813	-990.00359	-535.97001	1449.47596	-912.93886	-457.50169	1419.09905	-823.63061	-437.35197	1400.43457	-849.12006	-778.40325	1124.77600	-486.18020	-781.52380	1122.90197	-686.43927	-774.66696	1119.97373	-495.43756	-784.69091	1116.64775	-658.46549	
89	0.88000000	-637.00383	756.34928	-436.08148	-673.17007	698.85508	-412.08530	-904.64724	507.21870	-466.83202	-967.28582	524.16329	-523.15654	-880.13771	406.31434	-414.40695	-827.49015	377.56965	-454.73950	-690.82122	750.61496	-783.73595	-706.43521	681.44320	-792.93856	-951.29969	493.95372	-758.76827	-1013.97176	515.49180	-697.14316	-935.55310	391.85051	-798.00279	-877.70592	363.60611	-756.00093	-756.23569	620.91009	-415.18304	-721.12429	751.01370	-437.01799	-810.64863	676.47719	-443.72242	-764.24938	749.65823	-797.82978	-848.58864	661.39351	-796.89793	-667.48367	1064.96790	-450.09192	-621.90602	962.88265	-435.99823	-659.90229	927.17814	-392.86574	-758.73824	1034.00783	-390.05083	-716.53411	924.56350	-392.73586	-693.80138	1038.97703	-772.14841	-656.06474	906.00372	-786.87445	-807.04834	1009.62429	-779.36658	-760.63073	875.62464	-790.54403	-689.32660	1184.11584	-466.81170	-861.78803	1237.39492	-530.61210	-697.45766	1178.20341	-714.27484	-868.40945	1235.29731	-638.62212	-670.64631	1666.19389	-596.18642	-636.65880	1644.46285	-475.78810	-633.91588	1648.42258	-723.66069	-572.83461	1555.61091	-577.34488	-575.94786	1552.48008	-624.85784	-689.55617	1528.45750	-280.08241	-742.23586	1407.56678	-254.63312	-722.57588	1480.14501	-214.50739	-615.98436	1477.16370	-262.71293	-516.63527	1458.69673	-315.45181	-503.92145	1438.17739	-278.37216	-597.86949	1583.42108	-822.32572	-649.20239	1402.62029	-957.81676	-618.43485	1457.53683	-995.20363	-530.04786	1452.56704	-918.97726	-452.27450	1417.32879	-831.54033	-432.37449	1399.21771	-857.52480	-768.46447	1123.40992	-486.45429	-771.62865	1121.44048	-686.71201	-764.67375	1118.32832	-495.73918	-774.67350	1115.15961	-658.86252	
90	0.89000000	-617.09469	758.66382	-434.84626	-652.84655	701.08902	-410.73021	-878.95972	502.41572	-464.44619	-943.01292	517.30124	-519.77428	-850.30113	402.18320	-412.79152	-797.56510	375.20901	-454.02043	-673.30940	750.37807	-784.68698	-688.35009	681.16885	-794.03020	-931.16001	490.12024	-761.67558	-994.56342	510.46305	-700.63079	-913.84919	388.60674	-801.69440	-855.78981	361.02790	-759.57256	-734.75648	621.79846	-413.33019	-701.27244	751.91177	-437.33286	-789.68630	675.79354	-443.26523	-746.66039	749.06751	-798.52479	-830.34477	660.01613	-798.89809	-655.88582	1066.04634	-450.83237	-607.47079	965.29680	-436.12278	-644.21744	928.89959	-392.75318	-745.89306	1033.03324	-389.80678	-700.83620	924.69912	-392.05959	-681.65873	1038.40775	-771.63843	-641.01346	906.30924	-786.32182	-793.98602	1006.84433	-781.25662	-744.75007	873.84469	-792.43945	-679.21941	1181.90655	-467.11478	-852.18162	1234.80532	-530.74561	-687.89731	1175.68395	-714.25097	-858.92118	1232.76513	-639.02996	-657.74644	1663.89109	-595.60285	-623.04392	1641.87160	-475.67353	-620.44478	1645.94642	-723.07246	-561.36124	1552.20870	-576.81128	-563.97955	1549.49007	-623.94159	-683.04895	1532.15094	-280.01630	-739.37715	1413.80180	-252.14193	-719.07129	1486.36657	-213.72891	-610.98188	1478.45318	-258.01307	-510.63263	1455.33262	-307.09650	-499.84840	1435.45179	-268.91857	-587.04065	1582.55702	-823.27503	-645.16220	1408.99447	-965.20517	-613.08165	1464.50663	-1000.12284	-523.90905	1454.32903	-925.33552	-446.77808	1413.78686	-839.68702	-427.35422	1396.26527	-866.63284	-758.54535	1121.09308	-486.56164	-761.90179	1118.86322	-686.81337	-754.58400	1115.77797	-495.95600	-764.72380	1112.70787	-658.87381	
